<svg id="Layer_1" data-name="Layer 1" xmlns="http://www.w3.org/2000/svg" viewBox="0 0 252 86.01"><defs><style>.cls-1{fill:#fff;}.cls-2{fill:#282828;}.cls-3{fill:#4e6bb3;}.cls-4{fill:#80c341;}.cls-5{fill:#f68b23;}</style></defs><title>Artboard 1</title><circle class="cls-1" cx="43.62" cy="43.3" r="36.65"/><rect class="cls-2" x="93.98" y="53.96" width="151.1" height="18.12"/><path class="cls-2" d="M94,13.85h5.69V51.34H94Z"/><path class="cls-2" d="M108,42.23a18.41,18.41,0,0,0,4.89,2.71,16.34,16.34,0,0,0,5.74,1,9.14,9.14,0,0,0,5.45-1.43,4.43,4.43,0,0,0,2-3.79,5,5,0,0,0-1.19-3.37,5.64,5.64,0,0,0-3.71-1.68c-.84-.11-1.63-.21-2.37-.32L116.25,35a11.66,11.66,0,0,1-7.42-3.56,10.16,10.16,0,0,1-2.53-7,11.53,11.53,0,0,1,.82-4.43,9.4,9.4,0,0,1,2.39-3.44,11.28,11.28,0,0,1,3.85-2.27,15.16,15.16,0,0,1,5.15-.82A18.93,18.93,0,0,1,125,14.64a27.44,27.44,0,0,1,5.64,2.79l-3.16,4.69a20,20,0,0,0-4.4-2.11,15,15,0,0,0-4.87-.79,7.32,7.32,0,0,0-4.45,1.34,4.69,4.69,0,0,0-1.81,4,4.45,4.45,0,0,0,1.23,3,6.59,6.59,0,0,0,4.08,1.81l1.79.27c.7.1,1.51.21,2.42.31a13.13,13.13,0,0,1,4.56,1.32,10.76,10.76,0,0,1,3.19,2.47A10.11,10.11,0,0,1,131.15,37a11.25,11.25,0,0,1,.63,3.71,9.73,9.73,0,0,1-3.55,8.06q-3.55,2.84-9.61,2.84a23.18,23.18,0,0,1-7.74-1.26,19.88,19.88,0,0,1-6.58-3.9Z"/><path class="cls-2" d="M136.63,34.07h15.84v5.37H136.63Z"/><path class="cls-2" d="M171.37,30.7h13.32v7.63a13.2,13.2,0,0,1-8.13,12.3,13.48,13.48,0,0,1-5.24,1,13.32,13.32,0,0,1-4.08-.6,14.09,14.09,0,0,1-3.34-1.56,12.31,12.31,0,0,1-2.56-2.15,14.27,14.27,0,0,1-1.76-2.43,10.9,10.9,0,0,1-.76-1.6,10.52,10.52,0,0,1-.5-2A26.72,26.72,0,0,1,158,38c-.06-1.35-.08-3.15-.08-5.4s0-4,.08-5.39a26.72,26.72,0,0,1,.29-3.29,10.33,10.33,0,0,1,.5-2,11.48,11.48,0,0,1,.76-1.61,14.62,14.62,0,0,1,1.76-2.42,12.67,12.67,0,0,1,2.56-2.16,14.07,14.07,0,0,1,3.34-1.55,14.1,14.1,0,0,1,9,.26,13,13,0,0,1,3.92,2.4A13.31,13.31,0,0,1,183,20.35a14.65,14.65,0,0,1,1.52,4.29h-6a7.29,7.29,0,0,0-1-2.08,8.26,8.26,0,0,0-1.58-1.71,7.87,7.87,0,0,0-2.11-1.18,7,7,0,0,0-2.5-.45,6.88,6.88,0,0,0-3.45.82A8,8,0,0,0,165.53,22a9.22,9.22,0,0,0-.92,1.39,7.18,7.18,0,0,0-.58,1.77,18.41,18.41,0,0,0-.32,2.84c-.05,1.16-.08,2.7-.08,4.63s0,3.48.08,4.64a18.41,18.41,0,0,0,.32,2.84,7.67,7.67,0,0,0,.58,1.79,6.85,6.85,0,0,0,.92,1.37,8,8,0,0,0,2.34,1.92,6.88,6.88,0,0,0,3.45.82,7.94,7.94,0,0,0,3-.58,7.23,7.23,0,0,0,2.42-1.63,8,8,0,0,0,1.63-2.53A8.27,8.27,0,0,0,179,38v-2h-7.64Z"/><path class="cls-2" d="M191.33,13.85h23.95v5.37H197V29.91H212.6V35H197V46h18.27v5.37H191.33Z"/><path class="cls-2" d="M219.34,32.59c0-2.24,0-4,.07-5.39a28.86,28.86,0,0,1,.29-3.29,11.1,11.1,0,0,1,.5-2,12.88,12.88,0,0,1,.77-1.61,14.06,14.06,0,0,1,1.76-2.42,12.88,12.88,0,0,1,2.55-2.16,14.33,14.33,0,0,1,3.35-1.55,13.95,13.95,0,0,1,8.16,0,14.26,14.26,0,0,1,3.34,1.55,13,13,0,0,1,2.56,2.16,15.22,15.22,0,0,1,1.76,2.42,11.48,11.48,0,0,1,.76,1.61,10.33,10.33,0,0,1,.5,2A26.72,26.72,0,0,1,246,27.2c.05,1.35.08,3.15.08,5.39s0,4-.08,5.4a26.72,26.72,0,0,1-.29,3.29,10.52,10.52,0,0,1-.5,2,10.9,10.9,0,0,1-.76,1.6,14.84,14.84,0,0,1-1.76,2.43,12.58,12.58,0,0,1-2.56,2.15,14.27,14.27,0,0,1-3.34,1.56,14.17,14.17,0,0,1-8.16,0,14.35,14.35,0,0,1-3.35-1.56,12.51,12.51,0,0,1-2.55-2.15A13.74,13.74,0,0,1,221,44.91a12.15,12.15,0,0,1-.77-1.6,11.31,11.31,0,0,1-.5-2,28.86,28.86,0,0,1-.29-3.29C219.36,36.64,219.34,34.84,219.34,32.59Zm5.68,0c0,1.93,0,3.48.08,4.64a17.25,17.25,0,0,0,.32,2.84,7.23,7.23,0,0,0,.58,1.79,6.45,6.45,0,0,0,.92,1.37,7.78,7.78,0,0,0,2.34,1.92,7.67,7.67,0,0,0,6.9,0,8,8,0,0,0,2.34-1.92,9.65,9.65,0,0,0,.89-1.37,6.77,6.77,0,0,0,.61-1.79,18.41,18.41,0,0,0,.32-2.84c.05-1.16.07-2.71.07-4.64s0-3.47-.07-4.63a18.41,18.41,0,0,0-.32-2.84,6.36,6.36,0,0,0-.61-1.77A15,15,0,0,0,238.5,22,8,8,0,0,0,236.16,20a7.67,7.67,0,0,0-6.9,0A7.78,7.78,0,0,0,226.92,22a8.51,8.51,0,0,0-.92,1.39,6.78,6.78,0,0,0-.58,1.77A17.25,17.25,0,0,0,225.1,28C225.05,29.12,225,30.66,225,32.59Z"/><path class="cls-1" d="M99.2,58.66h1v6.78h-1Z"/><path class="cls-1" d="M101.57,60.61h1v.51h0a1.37,1.37,0,0,1,.54-.42,1.67,1.67,0,0,1,.71-.15,1.65,1.65,0,0,1,.57.11,1.74,1.74,0,0,1,.52.32,1.58,1.58,0,0,1,.37.53,1.62,1.62,0,0,1,.15.72v3.21h-1V62.56a1,1,0,0,0-.27-.76,1,1,0,0,0-1.37,0,1,1,0,0,0-.27.76v2.88h-1Z"/><path class="cls-1" d="M106.74,59.15h1v1.46h.7v.74h-.7v2.81a.36.36,0,0,0,.08.28.33.33,0,0,0,.26.08h.36v.92h-.5a1.22,1.22,0,0,1-.85-.31,1.15,1.15,0,0,1-.32-.88v-2.9h-.49v-.74h.49Z"/><path class="cls-1" d="M110.06,63.39a1.12,1.12,0,0,0,.32.89,1.18,1.18,0,0,0,.83.3,1.37,1.37,0,0,0,.55-.12,1.61,1.61,0,0,0,.5-.35l.71.6a2.09,2.09,0,0,1-.81.6,2.48,2.48,0,0,1-.93.18,2.76,2.76,0,0,1-.75-.1,1.67,1.67,0,0,1-.69-.38,2.07,2.07,0,0,1-.51-.75,3.29,3.29,0,0,1-.19-1.22,3.37,3.37,0,0,1,.18-1.18,2.13,2.13,0,0,1,.46-.77,1.71,1.71,0,0,1,.64-.41,2.16,2.16,0,0,1,.7-.13,2,2,0,0,1,.77.15,1.76,1.76,0,0,1,.63.41,2,2,0,0,1,.43.64,2.06,2.06,0,0,1,.16.84v.8Zm2-.8a1.19,1.19,0,0,0-.3-.84,1.05,1.05,0,0,0-1.43,0,1.19,1.19,0,0,0-.3.84Z"/><path class="cls-1" d="M114.08,58.66h1v5.53q0,.33.36.33h.34v.92h-.43a1.53,1.53,0,0,1-.49-.07.91.91,0,0,1-.39-.2.88.88,0,0,1-.26-.36,1.27,1.27,0,0,1-.1-.54Z"/><path class="cls-1" d="M116.54,58.66h1v5.53q0,.33.36.33h.33v.92h-.43a1.57,1.57,0,0,1-.49-.07,1,1,0,0,1-.39-.2,1,1,0,0,1-.26-.36,1.45,1.45,0,0,1-.09-.54Z"/><path class="cls-1" d="M119,58.66h1v1h-1Zm0,2h1v4.83h-1Z"/><path class="cls-1" d="M124,64.93a1.88,1.88,0,0,1-.55.41,1.66,1.66,0,0,1-.7.15,1.47,1.47,0,0,1-.79-.19,1.42,1.42,0,0,1-.48-.4,1.59,1.59,0,0,1-.17-.25.93.93,0,0,1-.11-.32,3.8,3.8,0,0,1-.07-.49c0-.21,0-.48,0-.81s0-.61,0-.81a4.29,4.29,0,0,1,.07-.5.86.86,0,0,1,.11-.32,1.64,1.64,0,0,1,.17-.26,1.54,1.54,0,0,1,.48-.4,1.56,1.56,0,0,1,.79-.19,1.47,1.47,0,0,1,.67.15,2,2,0,0,1,.58.42v-.51h1v4.71a2.43,2.43,0,0,1-.17.94,2,2,0,0,1-.46.67,2.14,2.14,0,0,1-.67.39,2.66,2.66,0,0,1-.79.12,1.94,1.94,0,0,1-.91-.22,2.47,2.47,0,0,1-.77-.59l.75-.59a1.5,1.5,0,0,0,.43.3,1,1,0,0,0,.51.13,1.22,1.22,0,0,0,.8-.26,1,1,0,0,0,.31-.78ZM122.08,63v.46a2.23,2.23,0,0,0,0,.3,1.67,1.67,0,0,0,.06.2,1.16,1.16,0,0,0,.11.16,1,1,0,0,0,.29.25.85.85,0,0,0,.48.12.86.86,0,0,0,.47-.12,1.22,1.22,0,0,0,.29-.25,1,1,0,0,0,.1-.16.52.52,0,0,0,.06-.2,2.23,2.23,0,0,0,0-.3c0-.12,0-.27,0-.46s0-.36,0-.48a2.36,2.36,0,0,0,0-.3.47.47,0,0,0-.06-.19.7.7,0,0,0-.1-.16,1.24,1.24,0,0,0-.29-.26.86.86,0,0,0-.47-.12.85.85,0,0,0-.48.12,1.07,1.07,0,0,0-.29.26.76.76,0,0,0-.11.16,1.45,1.45,0,0,0-.06.19,2.36,2.36,0,0,0,0,.3Z"/><path class="cls-1" d="M127,63.39a1.15,1.15,0,0,0,.32.89,1.18,1.18,0,0,0,.83.3,1.45,1.45,0,0,0,.56-.12,1.88,1.88,0,0,0,.5-.35l.7.6a2.09,2.09,0,0,1-.81.6,2.48,2.48,0,0,1-.93.18,2.76,2.76,0,0,1-.75-.1,1.67,1.67,0,0,1-.69-.38,2.07,2.07,0,0,1-.51-.75A3.29,3.29,0,0,1,126,63a3.37,3.37,0,0,1,.18-1.18,2.13,2.13,0,0,1,.46-.77,1.79,1.79,0,0,1,.64-.41,2.22,2.22,0,0,1,.71-.13,2,2,0,0,1,.76.15,1.76,1.76,0,0,1,.63.41,1.81,1.81,0,0,1,.43.64,2.07,2.07,0,0,1,.17.84v.8Zm2-.8a1.19,1.19,0,0,0-.3-.84,1.05,1.05,0,0,0-1.43,0,1.19,1.19,0,0,0-.3.84Z"/><path class="cls-1" d="M131,60.61h1v.51h0a1.47,1.47,0,0,1,.55-.42,1.65,1.65,0,0,1,1.28,0,1.69,1.69,0,0,1,.51.32,1.6,1.6,0,0,1,.38.53,1.62,1.62,0,0,1,.15.72v3.21h-1V62.56a1,1,0,0,0-.27-.76,1,1,0,0,0-1.37,0,1,1,0,0,0-.28.76v2.88h-1Z"/><path class="cls-1" d="M136.14,59.15h1v1.46h.71v.74h-.71v2.81a.41.41,0,0,0,.08.28.34.34,0,0,0,.26.08h.37v.92h-.51a1.21,1.21,0,0,1-.84-.31,1.15,1.15,0,0,1-.33-.88v-2.9h-.48v-.74h.48Z"/><path class="cls-1" d="M141.19,63.79a3.13,3.13,0,0,0,.88.49,3,3,0,0,0,1,.19,1.65,1.65,0,0,0,1-.26.8.8,0,0,0,.36-.69.88.88,0,0,0-.22-.61,1,1,0,0,0-.67-.3l-.42-.06-.47-.06a2.11,2.11,0,0,1-1.34-.65,1.8,1.8,0,0,1-.46-1.26,2.07,2.07,0,0,1,.15-.8,1.69,1.69,0,0,1,.43-.62,2.09,2.09,0,0,1,.7-.41,2.67,2.67,0,0,1,.93-.15,3.52,3.52,0,0,1,1.18.2,4.86,4.86,0,0,1,1,.51l-.57.84a4.52,4.52,0,0,0-.8-.38,2.84,2.84,0,0,0-.88-.14,1.31,1.31,0,0,0-.8.24.86.86,0,0,0-.33.73.8.8,0,0,0,.22.54,1.19,1.19,0,0,0,.74.33l.32,0,.44.06a2.4,2.4,0,0,1,.82.24,1.77,1.77,0,0,1,.58.45,1.66,1.66,0,0,1,.34.59,1.93,1.93,0,0,1,.12.67,1.76,1.76,0,0,1-.65,1.46,2.68,2.68,0,0,1-1.73.51,4,4,0,0,1-1.4-.23,3.52,3.52,0,0,1-1.19-.7Z"/><path class="cls-1" d="M145.78,60.61h1L148,64h0l1.14-3.38h1l-2.08,5.82a1.72,1.72,0,0,1-.24.47,1.06,1.06,0,0,1-.31.29,1.12,1.12,0,0,1-.38.15,2,2,0,0,1-.43,0h-.32v-.92h.29a.59.59,0,0,0,.34-.1.54.54,0,0,0,.24-.32l.26-.8Z"/><path class="cls-1" d="M150.84,64a2.27,2.27,0,0,0,.68.46,2,2,0,0,0,.85.16,1.27,1.27,0,0,0,.68-.16.5.5,0,0,0,.27-.46.4.4,0,0,0-.17-.36,1.08,1.08,0,0,0-.42-.11l-.86-.08a1.58,1.58,0,0,1-1-.4,1.2,1.2,0,0,1-.4-1,1.48,1.48,0,0,1,.14-.65,1.3,1.3,0,0,1,.38-.46,1.69,1.69,0,0,1,.57-.28,2.71,2.71,0,0,1,.71-.1,2.93,2.93,0,0,1,1.09.18,3.09,3.09,0,0,1,.8.48l-.59.7a3.17,3.17,0,0,0-.6-.32,1.86,1.86,0,0,0-.7-.12,1,1,0,0,0-.65.16.56.56,0,0,0-.18.42.4.4,0,0,0,.14.29.76.76,0,0,0,.5.16l.8.06a1.94,1.94,0,0,1,.64.15A1.4,1.4,0,0,1,154,63a1.22,1.22,0,0,1,.24.45,1.91,1.91,0,0,1,.08.54,1.33,1.33,0,0,1-.15.63,1.35,1.35,0,0,1-.43.46,1.82,1.82,0,0,1-.63.29,2.9,2.9,0,0,1-.79.1,3,3,0,0,1-1.12-.21,3.13,3.13,0,0,1-1-.65Z"/><path class="cls-1" d="M155.33,59.15h1v1.46h.7v.74h-.7v2.81a.36.36,0,0,0,.08.28.33.33,0,0,0,.26.08H157v.92h-.5a1.22,1.22,0,0,1-.85-.31,1.19,1.19,0,0,1-.32-.88v-2.9h-.49v-.74h.49Z"/><path class="cls-1" d="M158.65,63.39a1.15,1.15,0,0,0,.32.89,1.18,1.18,0,0,0,.83.3,1.45,1.45,0,0,0,.56-.12,1.88,1.88,0,0,0,.5-.35l.7.6a2.09,2.09,0,0,1-.81.6,2.48,2.48,0,0,1-.93.18,2.76,2.76,0,0,1-.75-.1,1.67,1.67,0,0,1-.69-.38,2.07,2.07,0,0,1-.51-.75,3.29,3.29,0,0,1-.19-1.22,3.37,3.37,0,0,1,.18-1.18,2.13,2.13,0,0,1,.46-.77,1.71,1.71,0,0,1,.64-.41,2.22,2.22,0,0,1,.71-.13,2,2,0,0,1,.76.15,1.76,1.76,0,0,1,.63.41,1.81,1.81,0,0,1,.43.64,2.06,2.06,0,0,1,.16.84v.8Zm2-.8a1.19,1.19,0,0,0-.3-.84,1.05,1.05,0,0,0-1.43,0,1.19,1.19,0,0,0-.3.84Z"/><path class="cls-1" d="M162.73,60.61h1v.51h0a1.33,1.33,0,0,1,.55-.42,1.64,1.64,0,0,1,.71-.15,1.55,1.55,0,0,1,.8.18,3,3,0,0,1,.56.45,1.86,1.86,0,0,1,.66-.48,2.24,2.24,0,0,1,.86-.15,1.65,1.65,0,0,1,.57.11,1.69,1.69,0,0,1,.51.32,1.6,1.6,0,0,1,.38.53,1.62,1.62,0,0,1,.15.72v3.21h-1V62.56a1,1,0,0,0-.27-.76,1,1,0,0,0-.68-.28.94.94,0,0,0-.69.28,1,1,0,0,0-.28.76v2.88h-1V62.56a1,1,0,0,0-.27-.76,1,1,0,0,0-1.37,0,1,1,0,0,0-.27.76v2.88h-1Z"/><path class="cls-1" d="M170.92,64a2.27,2.27,0,0,0,.68.46,2,2,0,0,0,.85.16,1.27,1.27,0,0,0,.68-.16.5.5,0,0,0,.27-.46.4.4,0,0,0-.17-.36,1.08,1.08,0,0,0-.42-.11l-.86-.08a1.58,1.58,0,0,1-1-.4,1.2,1.2,0,0,1-.4-1,1.48,1.48,0,0,1,.14-.65,1.3,1.3,0,0,1,.38-.46,1.69,1.69,0,0,1,.57-.28,2.71,2.71,0,0,1,.71-.1,2.93,2.93,0,0,1,1.09.18,3.09,3.09,0,0,1,.8.48l-.59.7a3.17,3.17,0,0,0-.6-.32,1.86,1.86,0,0,0-.7-.12,1,1,0,0,0-.65.16.56.56,0,0,0-.18.42.4.4,0,0,0,.14.29.76.76,0,0,0,.5.16l.8.06a1.94,1.94,0,0,1,.64.15,1.4,1.4,0,0,1,.44.31,1.22,1.22,0,0,1,.24.45,1.91,1.91,0,0,1,.08.54,1.33,1.33,0,0,1-.15.63,1.45,1.45,0,0,1-.43.46,1.82,1.82,0,0,1-.63.29,2.9,2.9,0,0,1-.79.1,3,3,0,0,1-1.12-.21,3.13,3.13,0,0,1-1-.65Z"/><path class="cls-1" d="M177.79,61.35h-.49v-.74h.49V60a1.78,1.78,0,0,1,.09-.59,1.2,1.2,0,0,1,.28-.41,1.22,1.22,0,0,1,.42-.23,1.67,1.67,0,0,1,.52-.08h.63v.91h-.56a.45.45,0,0,0-.32.09.44.44,0,0,0-.09.31v.64h1v.74h-1v4.09h-1Z"/><path class="cls-1" d="M180,63a6.45,6.45,0,0,1,0-.67,2.87,2.87,0,0,1,.09-.49,1.59,1.59,0,0,1,.17-.37,1.72,1.72,0,0,1,.23-.32,2.61,2.61,0,0,1,.24-.22,2,2,0,0,1,.32-.2,3.09,3.09,0,0,1,.4-.14,2.2,2.2,0,0,1,1,0,3.09,3.09,0,0,1,.4.14,2,2,0,0,1,.32.2,2.61,2.61,0,0,1,.24.22,1.72,1.72,0,0,1,.23.32,1.59,1.59,0,0,1,.17.37,2.87,2.87,0,0,1,.09.49,7.5,7.5,0,0,1,0,1.34,2.87,2.87,0,0,1-.09.49,1.85,1.85,0,0,1-.4.69,1.75,1.75,0,0,1-.24.23,1.42,1.42,0,0,1-.32.19,2.08,2.08,0,0,1-.4.15,2.63,2.63,0,0,1-1,0,2.08,2.08,0,0,1-.4-.15,1.42,1.42,0,0,1-.32-.19,1.75,1.75,0,0,1-.24-.23,1.85,1.85,0,0,1-.4-.69,2.87,2.87,0,0,1-.09-.49A6.45,6.45,0,0,1,180,63Zm3,0c0-.18,0-.33,0-.44a2,2,0,0,0,0-.3.63.63,0,0,0-.08-.22,1.18,1.18,0,0,0-.11-.19.85.85,0,0,0-.32-.26,1.19,1.19,0,0,0-.46-.1,1.15,1.15,0,0,0-.46.1.85.85,0,0,0-.32.26,1.18,1.18,0,0,0-.11.19.63.63,0,0,0-.08.22,2,2,0,0,0,0,.3c0,.11,0,.26,0,.43s0,.32,0,.44a2,2,0,0,0,0,.3.72.72,0,0,0,.08.22l.11.19a.75.75,0,0,0,.32.25,1,1,0,0,0,.46.1,1,1,0,0,0,.46-.1.75.75,0,0,0,.32-.25l.11-.19a.72.72,0,0,0,.08-.22,2,2,0,0,0,0-.3C183.05,63.34,183.05,63.2,183.05,63Z"/><path class="cls-1" d="M185,60.61h1v.51h0a1.37,1.37,0,0,1,.54-.42,1.67,1.67,0,0,1,.71-.15,1.53,1.53,0,0,1,.54.1,2.2,2.2,0,0,1,.47.27l-.7.84a1.15,1.15,0,0,0-.31-.18.81.81,0,0,0-.33-.06,1,1,0,0,0-.35.06.92.92,0,0,0-.3.18.81.81,0,0,0-.21.32,1,1,0,0,0-.08.45v2.91h-1Z"/><path class="cls-1" d="M193.31,61.71h2.4v1.38a2.46,2.46,0,0,1-.18.94,2.51,2.51,0,0,1-.52.76,2.33,2.33,0,0,1-.77.52,2.46,2.46,0,0,1-.94.18,2.17,2.17,0,0,1-.74-.11,2.28,2.28,0,0,1-.61-.28,2.16,2.16,0,0,1-.46-.39,3,3,0,0,1-.32-.43A2.48,2.48,0,0,1,191,64a1.34,1.34,0,0,1-.09-.36,4,4,0,0,1-.06-.6c0-.24,0-.57,0-1s0-.73,0-1a4,4,0,0,1,.06-.59,1.43,1.43,0,0,1,.09-.37,2.38,2.38,0,0,1,.13-.29,3.73,3.73,0,0,1,.32-.44A3,3,0,0,1,192,59a3.13,3.13,0,0,1,.61-.28,2.52,2.52,0,0,1,1.62,0,2.33,2.33,0,0,1,.71.43,2.29,2.29,0,0,1,.51.65,3,3,0,0,1,.28.77h-1.09a1.56,1.56,0,0,0-.17-.37,1.23,1.23,0,0,0-.29-.31,1.57,1.57,0,0,0-.38-.22,1.33,1.33,0,0,0-.45-.08,1.28,1.28,0,0,0-.63.15,1.45,1.45,0,0,0-.42.35,1.84,1.84,0,0,0-.17.25,1.35,1.35,0,0,0-.1.32,3,3,0,0,0-.06.51c0,.21,0,.49,0,.84s0,.63,0,.84a3.11,3.11,0,0,0,.06.51,1.52,1.52,0,0,0,.1.32,1.38,1.38,0,0,0,.17.25,1.63,1.63,0,0,0,.42.35,1.28,1.28,0,0,0,.63.15,1.37,1.37,0,0,0,.54-.11,1.35,1.35,0,0,0,.44-.29,1.47,1.47,0,0,0,.3-.46,1.58,1.58,0,0,0,.11-.58v-.35h-1.38Z"/><path class="cls-1" d="M197.56,63.39a1.15,1.15,0,0,0,.32.89,1.19,1.19,0,0,0,.83.3,1.41,1.41,0,0,0,.56-.12,1.74,1.74,0,0,0,.5-.35l.7.6a2.09,2.09,0,0,1-.81.6,2.44,2.44,0,0,1-.93.18,2.76,2.76,0,0,1-.75-.1,1.81,1.81,0,0,1-.69-.38,2.07,2.07,0,0,1-.51-.75,3.51,3.51,0,0,1-.19-1.22,3.37,3.37,0,0,1,.18-1.18,2.14,2.14,0,0,1,.47-.77,1.63,1.63,0,0,1,.64-.41,2.11,2.11,0,0,1,.7-.13,1.94,1.94,0,0,1,.76.15,1.76,1.76,0,0,1,.63.41,2,2,0,0,1,.44.64,2.24,2.24,0,0,1,.16.84v.8Zm2-.8a1.24,1.24,0,0,0-.31-.84,1,1,0,0,0-.71-.28,1,1,0,0,0-.71.28,1.15,1.15,0,0,0-.31.84Z"/><path class="cls-1" d="M201.35,63a6.45,6.45,0,0,1,0-.67,2.87,2.87,0,0,1,.09-.49,2.16,2.16,0,0,1,.16-.37,2.19,2.19,0,0,1,.47-.54,2.49,2.49,0,0,1,.32-.2,3.26,3.26,0,0,1,.41-.14,2.2,2.2,0,0,1,1,0l.4.14a2,2,0,0,1,.32.2l.23.22a1.41,1.41,0,0,1,.24.32,1.58,1.58,0,0,1,.16.37,2.11,2.11,0,0,1,.1.49,7.5,7.5,0,0,1,0,1.34,2.11,2.11,0,0,1-.1.49,1.67,1.67,0,0,1-.16.38,1.36,1.36,0,0,1-.24.31,2.5,2.5,0,0,1-.23.23,1.42,1.42,0,0,1-.32.19,2.37,2.37,0,0,1-.4.15,2.63,2.63,0,0,1-1,0,2.19,2.19,0,0,1-.41-.15,1.69,1.69,0,0,1-.32-.19,1.67,1.67,0,0,1-.23-.23,2.34,2.34,0,0,1-.24-.31,2.29,2.29,0,0,1-.16-.38,2.87,2.87,0,0,1-.09-.49A6.45,6.45,0,0,1,201.35,63Zm3,0v-.44a2,2,0,0,0,0-.3.93.93,0,0,0-.08-.22,1.18,1.18,0,0,0-.11-.19.85.85,0,0,0-.32-.26,1.19,1.19,0,0,0-.46-.1,1.15,1.15,0,0,0-.46.1.78.78,0,0,0-.32.26.76.76,0,0,0-.12.19,1,1,0,0,0-.07.22,2,2,0,0,0,0,.3c0,.11,0,.26,0,.43s0,.32,0,.44a2,2,0,0,0,0,.3,1.14,1.14,0,0,0,.07.22,1,1,0,0,0,.12.19.69.69,0,0,0,.32.25,1,1,0,0,0,.46.1,1,1,0,0,0,.46-.1.75.75,0,0,0,.32-.25l.11-.19a1.13,1.13,0,0,0,.08-.22,2,2,0,0,0,0-.3Z"/><path class="cls-1" d="M206.49,64a2.23,2.23,0,0,0,.67.46,2,2,0,0,0,.85.16,1.25,1.25,0,0,0,.68-.16A.5.5,0,0,0,209,64a.4.4,0,0,0-.17-.36,1,1,0,0,0-.42-.11l-.86-.08a1.58,1.58,0,0,1-1-.4,1.22,1.22,0,0,1-.39-1,1.48,1.48,0,0,1,.13-.65,1.3,1.3,0,0,1,.38-.46,1.89,1.89,0,0,1,.57-.28,2.71,2.71,0,0,1,.71-.1,2.93,2.93,0,0,1,1.09.18,3,3,0,0,1,.81.48l-.6.7a3.09,3.09,0,0,0-.59-.32,1.92,1.92,0,0,0-.71-.12,1,1,0,0,0-.64.16.56.56,0,0,0-.18.42.39.39,0,0,0,.13.29.78.78,0,0,0,.5.16l.8.06a1.94,1.94,0,0,1,.64.15,1.29,1.29,0,0,1,.44.31,1.41,1.41,0,0,1,.25.45,1.9,1.9,0,0,1,.07.54,1.33,1.33,0,0,1-.15.63,1.32,1.32,0,0,1-.42.46,1.87,1.87,0,0,1-.64.29,2.9,2.9,0,0,1-.79.1,3.05,3.05,0,0,1-1.12-.21,3.24,3.24,0,0,1-1-.65Z"/><path class="cls-1" d="M214.46,64.66a2.64,2.64,0,0,1-.74.59,2,2,0,0,1-1,.24,2.45,2.45,0,0,1-.81-.13,1.89,1.89,0,0,1-.7-.44,2,2,0,0,1-.49-.76,3,3,0,0,1-.19-1.13,2.9,2.9,0,0,1,.19-1.13,2.08,2.08,0,0,1,.49-.77,1.77,1.77,0,0,1,.7-.44,2.46,2.46,0,0,1,.81-.14,2,2,0,0,1,1,.24,2.87,2.87,0,0,1,.74.6l-.71.64a1.48,1.48,0,0,0-.43-.36,1.06,1.06,0,0,0-.55-.15,1.2,1.2,0,0,0-.93.36,2.15,2.15,0,0,0,0,2.29,1.19,1.19,0,0,0,.93.35,1,1,0,0,0,.55-.14,1.87,1.87,0,0,0,.43-.36Z"/><path class="cls-1" d="M215.17,58.66h1v1h-1Zm0,2h1v4.83h-1Z"/><path class="cls-1" d="M218.15,63.39a1.12,1.12,0,0,0,.33.89,1.16,1.16,0,0,0,.83.3,1.37,1.37,0,0,0,.55-.12,1.61,1.61,0,0,0,.5-.35l.71.6a2.17,2.17,0,0,1-.81.6,2.5,2.5,0,0,1-.94.18,2.87,2.87,0,0,1-.75-.1,1.81,1.81,0,0,1-.69-.38,2.19,2.19,0,0,1-.5-.75,3.27,3.27,0,0,1-.2-1.22,3.37,3.37,0,0,1,.18-1.18,2.29,2.29,0,0,1,.47-.77,1.63,1.63,0,0,1,.64-.41,2.16,2.16,0,0,1,.7-.13,1.94,1.94,0,0,1,.76.15,1.72,1.72,0,0,1,.64.41,2,2,0,0,1,.43.64,2.06,2.06,0,0,1,.16.84v.8Zm2-.8a1.19,1.19,0,0,0-.3-.84,1.05,1.05,0,0,0-1.43,0,1.24,1.24,0,0,0-.31.84Z"/><path class="cls-1" d="M222.18,60.61h1v.51h0a1.33,1.33,0,0,1,.55-.42,1.65,1.65,0,0,1,1.28,0,1.69,1.69,0,0,1,.51.32,1.75,1.75,0,0,1,.38.53,1.78,1.78,0,0,1,.14.72v3.21h-1V62.56a1,1,0,0,0-.27-.76,1,1,0,0,0-1.37,0,1,1,0,0,0-.27.76v2.88h-1Z"/><path class="cls-1" d="M230.84,64.66a2.55,2.55,0,0,1-.75.59,2,2,0,0,1-1,.24,2.56,2.56,0,0,1-.82-.13,2.07,2.07,0,0,1-.7-.44,2.22,2.22,0,0,1-.49-.76,3.19,3.19,0,0,1-.18-1.13,3.11,3.11,0,0,1,.18-1.13,2.37,2.37,0,0,1,.49-.77,1.93,1.93,0,0,1,.7-.44,2.57,2.57,0,0,1,.82-.14,2,2,0,0,1,1,.24,2.76,2.76,0,0,1,.75.6l-.71.64a1.62,1.62,0,0,0-.43-.36,1.06,1.06,0,0,0-.55-.15,1.2,1.2,0,0,0-.93.36,2.15,2.15,0,0,0,0,2.29,1.19,1.19,0,0,0,.93.35,1,1,0,0,0,.55-.14,2.11,2.11,0,0,0,.43-.36Z"/><path class="cls-1" d="M232.25,63.39a1.15,1.15,0,0,0,.32.89,1.18,1.18,0,0,0,.83.3,1.45,1.45,0,0,0,.56-.12,1.88,1.88,0,0,0,.5-.35l.7.6a2.09,2.09,0,0,1-.81.6,2.48,2.48,0,0,1-.93.18,2.76,2.76,0,0,1-.75-.1A1.67,1.67,0,0,1,232,65a2.07,2.07,0,0,1-.51-.75,3.29,3.29,0,0,1-.19-1.22,3.37,3.37,0,0,1,.18-1.18,2.13,2.13,0,0,1,.46-.77,1.71,1.71,0,0,1,.64-.41,2.22,2.22,0,0,1,.71-.13,2,2,0,0,1,.76.15,1.76,1.76,0,0,1,.63.41,2,2,0,0,1,.43.64,2.07,2.07,0,0,1,.17.84v.8Zm2-.8a1.19,1.19,0,0,0-.3-.84,1.05,1.05,0,0,0-1.43,0,1.19,1.19,0,0,0-.3.84Z"/><path class="cls-1" d="M236.42,64a2.23,2.23,0,0,0,.67.46,2,2,0,0,0,.85.16,1.25,1.25,0,0,0,.68-.16.5.5,0,0,0,.27-.46.4.4,0,0,0-.17-.36,1,1,0,0,0-.42-.11l-.86-.08a1.58,1.58,0,0,1-1-.4,1.23,1.23,0,0,1-.4-1,1.48,1.48,0,0,1,.14-.65,1.3,1.3,0,0,1,.38-.46,1.89,1.89,0,0,1,.57-.28,2.71,2.71,0,0,1,.71-.1,2.93,2.93,0,0,1,1.09.18,3,3,0,0,1,.81.48l-.6.7a3.09,3.09,0,0,0-.59-.32,2,2,0,0,0-.71-.12,1,1,0,0,0-.64.16.56.56,0,0,0-.18.42.39.39,0,0,0,.13.29.76.76,0,0,0,.5.16l.8.06a1.94,1.94,0,0,1,.64.15,1.29,1.29,0,0,1,.44.31,1.41,1.41,0,0,1,.25.45,1.9,1.9,0,0,1,.07.54,1.33,1.33,0,0,1-.15.63,1.32,1.32,0,0,1-.42.46,2,2,0,0,1-.64.29,2.9,2.9,0,0,1-.79.1,3.05,3.05,0,0,1-1.12-.21,3.24,3.24,0,0,1-1-.65Z"/><path class="cls-3" d="M43.62,5.49a37.81,37.81,0,0,0,0,75.62Z"/><polygon class="cls-4" points="44.34 22.99 43.86 22.59 43.86 23.6 44.34 22.99"/><path class="cls-1" d="M42.46,46.54l-2.85-.91-5,1.95-1.95-.85-1.12.53-2.18-.79.3-2.93-1.05-1.18H26.49l-4.2-2-2.17-3.91,1.12-2.35,4.88-1.69,3.37.13,2.25,2.6,1.5.07-1.43-2.67,3.9-3.33,4.2-3.2L41,23.71l2.4.52.5-.63v-1l-1.62-1.36-2.7.39,3.37-1.82.45,1,.5-.06V18.44l-2-1.38-2.1-.26L38,16l-3,2.54-.68,1.83-1-1.83-3.6-1.24L30.84,16l3.52-.85.9.52,1.2-.52h2.38l.7.72,2,.19,1.13-.91L42,13.27l-2.25-.45H37.51L33.7,10.77l-2.52-.84-2.65.84c-8.46,1-7.42,5.31-13.27,10.23l-.32,1.08-2.17,1.3L11,29.58l1.35,6.78,1.8.66.38,2.67,2,1.7,3.53,1.82,1.8-.65L24.17,44l3.14,1.1-.67,1.57,3.15,1.63,1.12,1.37,1.58-1.11L36,49.67,33.46,51l-.75,1.9-2.7,2,2.48,6.19,2.62,2.81,4.5,2.28-.45,3.46-1.8,5.87-.82,3.32,1.49.94c.87.09,1.75.15,2.63.19v-.73l3.2-1.6V46.34Z"/><path class="cls-5" d="M43.86,9.51v5.15a28.65,28.65,0,0,1,0,57.29v5.14a33.79,33.79,0,0,0,0-67.58Z"/><path class="cls-5" d="M43.62,20.7v5.15a17.46,17.46,0,1,1,0,34.91v5.15a22.61,22.61,0,1,0,0-45.21Z"/><circle class="cls-1" cx="23.78" cy="33.38" r="5.88"/><circle class="cls-1" cx="43.62" cy="43.3" r="9.92"/><circle class="cls-1" cx="17.89" cy="68.36" r="5.88"/><circle class="cls-1" cx="74.48" cy="33.38" r="5.88"/><circle class="cls-2" cx="23.78" cy="33.38" r="3.13"/><circle class="cls-2" cx="17.89" cy="68.36" r="3.13"/><circle class="cls-2" cx="74.48" cy="33.38" r="3.13"/><path class="cls-2" d="M72.12,68.13a37.66,37.66,0,0,0,8.55-32.32,6.77,6.77,0,0,0,.46-2.43,6.63,6.63,0,0,0-3.06-5.59A37.77,37.77,0,0,0,43.62,5.49h0c-.73,0-1.46,0-2.18.07l-.6.05-1.62.15-.58.07c-.57.08-1.13.16-1.69.26l-.43.08c-.69.13-1.38.28-2.06.45h0A6.47,6.47,0,0,0,23.2,11.49h0a38.6,38.6,0,0,0-5.48,4.28l0,0c-.55.52-1.08,1.05-1.6,1.6l0,.05A35.82,35.82,0,0,0,13.11,21h0c-.43.58-.83,1.18-1.23,1.78,0,.09-.11.18-.17.27-.36.57-.7,1.14-1,1.72l-.12.2a37.86,37.86,0,0,0-1.92,4l-.18.45c-.21.54-.41,1.07-.6,1.62l-.18.54q-.28.9-.54,1.8L7,33.71c-.18.71-.35,1.43-.49,2.16,0,.16-.06.32-.09.49-.1.56-.2,1.12-.28,1.69l-.09.72q-.09.79-.15,1.59c0,.23,0,.45-.05.68,0,.75-.08,1.5-.08,2.26,0,.08,0,.15,0,.22,0,.42,0,.85,0,1.27,0,.24,0,.47,0,.71s0,.5,0,.75.05.61.08.92l.06.53c0,.36.09.71.14,1.07,0,.12,0,.24,0,.36q.09.59.21,1.17a2,2,0,0,0,0,.24q.12.63.27,1.26s0,.08,0,.13c.11.45.23.9.35,1.34v0A37.47,37.47,0,0,0,12.4,64.6a6.57,6.57,0,0,0-1.17,3.76A6.66,6.66,0,0,0,21.49,74a38.53,38.53,0,0,0,4.92,3h0l1.27.62.07,0c.41.19.82.38,1.24.55l.14.06,1.21.48.19.07,1.18.41.27.09,1.13.35.35.09,1.07.29.44.1,1,.23.53.1.94.17c.21,0,.43.06.64.09l.87.13.75.08.77.07c.32,0,.64,0,1,.06l.59,0c.52,0,1.05,0,1.57,0a37.64,37.64,0,0,0,18.57-4.88,6.48,6.48,0,0,0,9.93-8.1Zm7.47-34.75a5.12,5.12,0,1,1-5.11-5.11A5.12,5.12,0,0,1,79.59,33.38ZM36.11,10.3A6.61,6.61,0,0,0,35.82,9l.14,0c.8-.18,1.61-.34,2.42-.46h.08c.75-.11,1.51-.19,2.27-.25l.46,0h1.14V33.47a11.69,11.69,0,0,0-1.43.29L33.36,16.32A6.47,6.47,0,0,0,36.11,10.3ZM9.27,51.15a.09.09,0,0,0,0,0c-.18-.82-.34-1.65-.47-2.49,0-.28-.06-.57-.1-.85-.07-.59-.15-1.17-.2-1.77-.07-.89-.1-1.78-.1-2.69q0-1,.06-2.07c0-.21,0-.42.05-.64,0-.47.08-1,.14-1.42,0-.23,0-.47.09-.7.06-.47.14-.94.22-1.41,0-.2.07-.4.11-.6a33.26,33.26,0,0,1,1-3.87c.06-.19.12-.37.19-.56.15-.45.31-.89.48-1.33a6.44,6.44,0,0,1,.24-.61c.18-.44.37-.88.56-1.31l.23-.51a37.25,37.25,0,0,1,1.88-3.46c.1-.15.2-.3.29-.45q.39-.6.81-1.2l.34-.49q.43-.6.9-1.17l.3-.39a34.76,34.76,0,0,1,2.65-2.91c.11-.12.23-.23.35-.34l1.1-1,.43-.37c.38-.33.78-.65,1.18-1l.35-.28c.53-.4,1.07-.79,1.62-1.16a6.47,6.47,0,0,0,6.4,3.36,4.72,4.72,0,0,0,.64-.1l7.54,17.45a10.08,10.08,0,0,0-3.41,3.4L30,35.64a6.55,6.55,0,0,0,.4-2.26A6.68,6.68,0,1,0,29.34,37l5.09,2.55a9.9,9.9,0,0,0,1.25,9.67l-14,13.64a6.67,6.67,0,0,0-3.78-1.18,6.54,6.54,0,0,0-3.6,1.07A35.31,35.31,0,0,1,9.27,51.15ZM28.89,33.38a5.12,5.12,0,1,1-5.11-5.11A5.12,5.12,0,0,1,28.89,33.38Zm-11,40.09A5.12,5.12,0,1,1,23,68.36,5.12,5.12,0,0,1,17.89,73.47Zm24.44,5H40.92c-.7-.05-1.4-.13-2.09-.23l-.45-.06c-.69-.11-1.39-.23-2.07-.37l-.23-.06c-.7-.15-1.4-.32-2.09-.52l-.1,0c-.72-.21-1.44-.44-2.15-.7l-.13,0a35.39,35.39,0,0,1-8.22-4.31,6.62,6.62,0,0,0,1.16-3.74,6.55,6.55,0,0,0-1.09-3.63l14-13.65a9.81,9.81,0,0,0,4.86,2.05ZM36.27,43.3a7.35,7.35,0,1,1,7.35,7.35A7.36,7.36,0,0,1,36.27,43.3ZM60.09,72.12a6.44,6.44,0,0,0,.56,2A35,35,0,0,1,44.91,78.5V53.13a9.84,9.84,0,0,0,3.92-1.39l12.7,15.58A6.44,6.44,0,0,0,60.09,72.12ZM70.37,66.2a6.47,6.47,0,0,0-6.85-.51L50.83,50.11a9.87,9.87,0,0,0,2.46-9l7.2-2.24c-.13-.5-.28-1-.46-1.48l-7.19,2.24a9.92,9.92,0,0,0-7.93-6.16V8.11A35.25,35.25,0,0,1,74.68,26.73h-.2a6.63,6.63,0,0,0-4.78,2L62,22.21a3.25,3.25,0,0,0,.38-1.51A3.35,3.35,0,1,0,61,23.39L68.76,30a6.67,6.67,0,0,0-.94,3.4A6.56,6.56,0,0,0,68,34.92L65,35.86c.17.49.32,1,.46,1.48l3.12-1A6.65,6.65,0,0,0,74.48,40a6.56,6.56,0,0,0,4-1.39,34,34,0,0,1,.34,4.65A35.09,35.09,0,0,1,70.37,66.2Z"/></svg>